<?xml version="1.0" standalone="no"?>
<!DOCTYPE svg PUBLIC "-//W3C//DTD SVG 20010904//EN"
 "http://www.w3.org/TR/2001/REC-SVG-20010904/DTD/svg10.dtd">
<svg version="1.0" xmlns="http://www.w3.org/2000/svg"
 width="120.000000pt" height="120.000000pt" viewBox="0 0 120.000000 120.000000"
 preserveAspectRatio="xMidYMid meet">

<g transform="translate(0.000000,120.000000) scale(0.100000,-0.100000)"
fill="#000000" stroke="none">
<path d="M197 822 c-23 -25 -47 -103 -47 -151 0 -20 9 -50 20 -68 25 -42 69
-51 144 -27 53 17 58 17 91 1 64 -31 122 -15 70 19 -14 9 -25 25 -25 35 0 24
19 24 248 0 141 -15 175 -22 186 -36 11 -15 18 -16 43 -7 24 8 34 7 46 -5 9
-9 23 -13 31 -10 18 7 22 37 5 37 -5 0 -7 5 -3 11 4 7 1 10 -7 7 -8 -3 -34 5
-58 18 -28 15 -53 21 -71 18 -15 -3 -78 1 -141 10 -63 8 -140 18 -172 21 -52
6 -58 9 -55 28 2 15 12 23 32 27 16 3 31 11 33 17 7 21 -42 32 -115 26 -63 -5
-74 -3 -103 17 -46 33 -127 39 -152 12z"/>
<path d="M387 533 c-4 -3 -7 -12 -7 -19 0 -9 22 -14 73 -16 l72 -3 3 -32 c4
-42 -40 -92 -63 -73 -19 16 -19 37 -1 73 14 26 14 27 -13 27 -34 0 -56 -41
-45 -84 19 -75 135 -55 170 30 17 40 4 76 -33 93 -26 12 -145 15 -156 4z"/>
<path d="M668 519 c-66 -34 -87 -113 -36 -140 26 -14 135 -22 142 -10 3 4 -16
11 -41 14 -79 9 -100 58 -46 109 23 21 25 22 34 5 12 -21 57 -23 65 -2 17 44
-54 58 -118 24z"/>
<path d="M817 533 c-15 -14 -6 -23 23 -23 17 0 30 -2 30 -3 0 -2 -9 -30 -20
-62 -11 -32 -20 -62 -20 -67 0 -16 32 -7 66 19 l35 26 -6 -26 c-7 -26 -6 -27
38 -27 25 0 49 5 52 10 3 6 -4 10 -17 10 -21 0 -24 4 -23 40 1 33 8 45 40 74
31 28 36 35 21 36 -10 0 -47 -25 -82 -56 l-64 -55 15 42 c23 65 21 69 -33 69
-27 0 -52 -3 -55 -7z"/>
<path d="M156 515 c-4 -13 7 -15 69 -15 68 0 75 -2 75 -20 0 -12 -12 -26 -30
-35 -35 -18 -35 -17 -15 -55 13 -26 21 -30 55 -30 21 0 42 5 45 10 3 6 -5 10
-19 10 -15 0 -30 8 -36 21 -7 11 -10 22 -8 23 2 1 18 13 36 25 35 25 40 42 16
65 -22 22 -179 23 -188 1z"/>
<path d="M187 429 c-22 -66 -21 -71 5 -67 14 2 25 15 33 38 28 82 28 80 2 80
-20 0 -27 -8 -40 -51z"/>
</g>
</svg>
